<?xml version="1.0" encoding="UTF-8"?>
<!DOCTYPE svg PUBLIC "-//W3C//DTD SVG 1.1//EN" "http://www.w3.org/Graphics/SVG/1.1/DTD/svg11.dtd">
<svg width="160mm" height="90mm" viewBox="0 0 16000 9000" version="1.1" xmlns="http://www.w3.org/2000/svg" stroke-width="28.222" stroke-linejoin="round" xml:space="preserve">
 <path fill="rgb(255,255,255)" stroke="none" d="M 8006,9005 L 0,9005 0,0 16011,0 16011,9005 8006,9005 Z"/>
 <path fill="none" stroke="rgb(179,179,179)" stroke-linejoin="round" d="M 8821,7302 L 2191,7302 2191,2257 15451,2257 15451,7302 8821,7302 Z"/>
 <path fill="none" stroke="rgb(179,179,179)" stroke-linejoin="round" d="M 15451,7301 L 2191,7301"/>
 <path fill="none" stroke="rgb(179,179,179)" stroke-linejoin="round" d="M 15451,6796 L 2191,6796"/>
 <path fill="none" stroke="rgb(179,179,179)" stroke-linejoin="round" d="M 15451,6291 L 2191,6291"/>
 <path fill="none" stroke="rgb(179,179,179)" stroke-linejoin="round" d="M 15451,5787 L 2191,5787"/>
 <path fill="none" stroke="rgb(179,179,179)" stroke-linejoin="round" d="M 15451,5282 L 2191,5282"/>
 <path fill="none" stroke="rgb(179,179,179)" stroke-linejoin="round" d="M 15451,4778 L 2191,4778"/>
 <path fill="none" stroke="rgb(179,179,179)" stroke-linejoin="round" d="M 15451,4274 L 2191,4274"/>
 <path fill="none" stroke="rgb(179,179,179)" stroke-linejoin="round" d="M 15451,3769 L 2191,3769"/>
 <path fill="none" stroke="rgb(179,179,179)" stroke-linejoin="round" d="M 15451,3265 L 2191,3265"/>
 <path fill="none" stroke="rgb(179,179,179)" stroke-linejoin="round" d="M 15451,2760 L 2191,2760"/>
 <path fill="none" stroke="rgb(179,179,179)" stroke-linejoin="round" d="M 15451,2255 L 2191,2255"/>
 <path fill="none" stroke="rgb(179,179,179)" stroke-linejoin="round" d="M 2191,7451 L 2191,7301"/>
 <path fill="none" stroke="rgb(179,179,179)" stroke-linejoin="round" d="M 2191,7451 L 2191,7301"/>
 <path fill="none" stroke="rgb(179,179,179)" stroke-linejoin="round" d="M 4401,7451 L 4401,7301"/>
 <path fill="none" stroke="rgb(179,179,179)" stroke-linejoin="round" d="M 4401,7451 L 4401,7301"/>
 <path fill="none" stroke="rgb(179,179,179)" stroke-linejoin="round" d="M 6611,7451 L 6611,7301"/>
 <path fill="none" stroke="rgb(179,179,179)" stroke-linejoin="round" d="M 6611,7451 L 6611,7301"/>
 <path fill="none" stroke="rgb(179,179,179)" stroke-linejoin="round" d="M 8820,7451 L 8820,7301"/>
 <path fill="none" stroke="rgb(179,179,179)" stroke-linejoin="round" d="M 8820,7451 L 8820,7301"/>
 <path fill="none" stroke="rgb(179,179,179)" stroke-linejoin="round" d="M 11030,7451 L 11030,7301"/>
 <path fill="none" stroke="rgb(179,179,179)" stroke-linejoin="round" d="M 11030,7451 L 11030,7301"/>
 <path fill="none" stroke="rgb(179,179,179)" stroke-linejoin="round" d="M 13240,7451 L 13240,7301"/>
 <path fill="none" stroke="rgb(179,179,179)" stroke-linejoin="round" d="M 13240,7451 L 13240,7301"/>
 <path fill="none" stroke="rgb(179,179,179)" stroke-linejoin="round" d="M 15451,7451 L 15451,7301"/>
 <path fill="none" stroke="rgb(179,179,179)" stroke-linejoin="round" d="M 15451,7451 L 15451,7301"/>
 <path fill="none" stroke="rgb(179,179,179)" stroke-linejoin="round" d="M 2191,7301 L 15451,7301"/>
 <path fill="none" stroke="rgb(179,179,179)" stroke-linejoin="round" d="M 2041,7301 L 2191,7301"/>
 <path fill="none" stroke="rgb(179,179,179)" stroke-linejoin="round" d="M 2041,7301 L 2191,7301"/>
 <path fill="none" stroke="rgb(179,179,179)" stroke-linejoin="round" d="M 2041,6796 L 2191,6796"/>
 <path fill="none" stroke="rgb(179,179,179)" stroke-linejoin="round" d="M 2041,6796 L 2191,6796"/>
 <path fill="none" stroke="rgb(179,179,179)" stroke-linejoin="round" d="M 2041,6291 L 2191,6291"/>
 <path fill="none" stroke="rgb(179,179,179)" stroke-linejoin="round" d="M 2041,6291 L 2191,6291"/>
 <path fill="none" stroke="rgb(179,179,179)" stroke-linejoin="round" d="M 2041,5787 L 2191,5787"/>
 <path fill="none" stroke="rgb(179,179,179)" stroke-linejoin="round" d="M 2041,5787 L 2191,5787"/>
 <path fill="none" stroke="rgb(179,179,179)" stroke-linejoin="round" d="M 2041,5282 L 2191,5282"/>
 <path fill="none" stroke="rgb(179,179,179)" stroke-linejoin="round" d="M 2041,5282 L 2191,5282"/>
 <path fill="none" stroke="rgb(179,179,179)" stroke-linejoin="round" d="M 2041,4778 L 2191,4778"/>
 <path fill="none" stroke="rgb(179,179,179)" stroke-linejoin="round" d="M 2041,4778 L 2191,4778"/>
 <path fill="none" stroke="rgb(179,179,179)" stroke-linejoin="round" d="M 2041,4274 L 2191,4274"/>
 <path fill="none" stroke="rgb(179,179,179)" stroke-linejoin="round" d="M 2041,4274 L 2191,4274"/>
 <path fill="none" stroke="rgb(179,179,179)" stroke-linejoin="round" d="M 2041,3769 L 2191,3769"/>
 <path fill="none" stroke="rgb(179,179,179)" stroke-linejoin="round" d="M 2041,3769 L 2191,3769"/>
 <path fill="none" stroke="rgb(179,179,179)" stroke-linejoin="round" d="M 2041,3265 L 2191,3265"/>
 <path fill="none" stroke="rgb(179,179,179)" stroke-linejoin="round" d="M 2041,3265 L 2191,3265"/>
 <path fill="none" stroke="rgb(179,179,179)" stroke-linejoin="round" d="M 2041,2760 L 2191,2760"/>
 <path fill="none" stroke="rgb(179,179,179)" stroke-linejoin="round" d="M 2041,2760 L 2191,2760"/>
 <path fill="none" stroke="rgb(179,179,179)" stroke-linejoin="round" d="M 2041,2255 L 2191,2255"/>
 <path fill="none" stroke="rgb(179,179,179)" stroke-linejoin="round" d="M 2041,2255 L 2191,2255"/>
 <path fill="none" stroke="rgb(179,179,179)" stroke-linejoin="round" d="M 2191,7301 L 2191,2255"/>
 <path fill="rgb(0,69,134)" stroke="none" d="M 13115,2736 L 13115,2986 13365,2986 13365,2736 13115,2736 Z"/>
 <path fill="none" stroke="rgb(0,69,134)" stroke-linejoin="round" d="M 13115,2736 L 13115,2986 13365,2986 13365,2736 13115,2736 Z"/>
 <path fill="rgb(0,69,134)" stroke="none" d="M 11017,2794 L 11017,3044 11267,3044 11267,2794 11017,2794 Z"/>
 <path fill="none" stroke="rgb(0,69,134)" stroke-linejoin="round" d="M 11017,2794 L 11017,3044 11267,3044 11267,2794 11017,2794 Z"/>
 <path fill="rgb(0,69,134)" stroke="none" d="M 9137,2810 L 9137,3060 9387,3060 9387,2810 9137,2810 Z"/>
 <path fill="none" stroke="rgb(0,69,134)" stroke-linejoin="round" d="M 9137,2810 L 9137,3060 9387,3060 9387,2810 9137,2810 Z"/>
 <path fill="rgb(0,69,134)" stroke="none" d="M 7481,2819 L 7481,3069 7731,3069 7731,2819 7481,2819 Z"/>
 <path fill="none" stroke="rgb(0,69,134)" stroke-linejoin="round" d="M 7481,2819 L 7481,3069 7731,3069 7731,2819 7481,2819 Z"/>
 <path fill="rgb(0,69,134)" stroke="none" d="M 6044,2950 L 6044,3200 6294,3200 6294,2950 6044,2950 Z"/>
 <path fill="none" stroke="rgb(0,69,134)" stroke-linejoin="round" d="M 6044,2950 L 6044,3200 6294,3200 6294,2950 6044,2950 Z"/>
 <path fill="rgb(0,69,134)" stroke="none" d="M 4828,3066 L 4828,3316 5078,3316 5078,3066 4828,3066 Z"/>
 <path fill="none" stroke="rgb(0,69,134)" stroke-linejoin="round" d="M 4828,3066 L 4828,3316 5078,3316 5078,3066 4828,3066 Z"/>
 <path fill="rgb(0,69,134)" stroke="none" d="M 3834,3450 L 3834,3700 4084,3700 4084,3450 3834,3450 Z"/>
 <path fill="none" stroke="rgb(0,69,134)" stroke-linejoin="round" d="M 3834,3450 L 3834,3700 4084,3700 4084,3450 3834,3450 Z"/>
 <path fill="rgb(0,69,134)" stroke="none" d="M 3060,4335 L 3060,4584 3310,4584 3310,4335 3060,4335 Z"/>
 <path fill="none" stroke="rgb(0,69,134)" stroke-linejoin="round" d="M 3060,4335 L 3060,4584 3310,4584 3310,4335 3060,4335 Z"/>
 <path fill="rgb(0,69,134)" stroke="none" d="M 2508,6214 L 2508,6464 2758,6464 2758,6214 2508,6214 Z"/>
 <path fill="none" stroke="rgb(0,69,134)" stroke-linejoin="round" d="M 2508,6214 L 2508,6464 2758,6464 2758,6214 2508,6214 Z"/>
 <path fill="rgb(0,69,134)" stroke="none" d="M 2176,7173 L 2176,7423 2426,7423 2426,7173 2176,7173 Z"/>
 <path fill="none" stroke="rgb(0,69,134)" stroke-linejoin="round" d="M 2176,7173 L 2176,7423 2426,7423 2426,7173 2176,7173 Z"/>
 <text class="TextShape"><tspan class="TextParagraph" font-family="Liberation Sans, sans-serif" font-size="353px" font-weight="400"><tspan class="TextPosition" x="2098" y="7842"><tspan fill="rgb(0,0,0)" stroke="none">0</tspan></tspan></tspan></text>
 <text class="TextShape"><tspan class="TextParagraph" font-family="Liberation Sans, sans-serif" font-size="353px" font-weight="400"><tspan class="TextPosition" x="4163" y="7842"><tspan fill="rgb(0,0,0)" stroke="none">0.2</tspan></tspan></tspan></text>
 <text class="TextShape"><tspan class="TextParagraph" font-family="Liberation Sans, sans-serif" font-size="353px" font-weight="400"><tspan class="TextPosition" x="6373" y="7842"><tspan fill="rgb(0,0,0)" stroke="none">0.4</tspan></tspan></tspan></text>
 <text class="TextShape"><tspan class="TextParagraph" font-family="Liberation Sans, sans-serif" font-size="353px" font-weight="400"><tspan class="TextPosition" x="8583" y="7842"><tspan fill="rgb(0,0,0)" stroke="none">0.6</tspan></tspan></tspan></text>
 <text class="TextShape"><tspan class="TextParagraph" font-family="Liberation Sans, sans-serif" font-size="353px" font-weight="400"><tspan class="TextPosition" x="10793" y="7842"><tspan fill="rgb(0,0,0)" stroke="none">0.8</tspan></tspan></tspan></text>
 <text class="TextShape"><tspan class="TextParagraph" font-family="Liberation Sans, sans-serif" font-size="353px" font-weight="400"><tspan class="TextPosition" x="13148" y="7842"><tspan fill="rgb(0,0,0)" stroke="none">1</tspan></tspan></tspan></text>
 <text class="TextShape"><tspan class="TextParagraph" font-family="Liberation Sans, sans-serif" font-size="353px" font-weight="400"><tspan class="TextPosition" x="15214" y="7842"><tspan fill="rgb(0,0,0)" stroke="none">1.2</tspan></tspan></tspan></text>
 <text class="TextShape"><tspan class="TextParagraph" font-family="Liberation Sans, sans-serif" font-size="353px" font-weight="400"><tspan class="TextPosition" x="1756" y="7421"><tspan fill="rgb(0,0,0)" stroke="none">0</tspan></tspan></tspan></text>
 <text class="TextShape"><tspan class="TextParagraph" font-family="Liberation Sans, sans-serif" font-size="353px" font-weight="400"><tspan class="TextPosition" x="1280" y="6916"><tspan fill="rgb(0,0,0)" stroke="none">0.05</tspan></tspan></tspan></text>
 <text class="TextShape"><tspan class="TextParagraph" font-family="Liberation Sans, sans-serif" font-size="353px" font-weight="400"><tspan class="TextPosition" x="1465" y="6411"><tspan fill="rgb(0,0,0)" stroke="none">0.1</tspan></tspan></tspan></text>
 <text class="TextShape"><tspan class="TextParagraph" font-family="Liberation Sans, sans-serif" font-size="353px" font-weight="400"><tspan class="TextPosition" x="1280" y="5907"><tspan fill="rgb(0,0,0)" stroke="none">0.15</tspan></tspan></tspan></text>
 <text class="TextShape"><tspan class="TextParagraph" font-family="Liberation Sans, sans-serif" font-size="353px" font-weight="400"><tspan class="TextPosition" x="1465" y="5402"><tspan fill="rgb(0,0,0)" stroke="none">0.2</tspan></tspan></tspan></text>
 <text class="TextShape"><tspan class="TextParagraph" font-family="Liberation Sans, sans-serif" font-size="353px" font-weight="400"><tspan class="TextPosition" x="1280" y="4898"><tspan fill="rgb(0,0,0)" stroke="none">0.25</tspan></tspan></tspan></text>
 <text class="TextShape"><tspan class="TextParagraph" font-family="Liberation Sans, sans-serif" font-size="353px" font-weight="400"><tspan class="TextPosition" x="1465" y="4393"><tspan fill="rgb(0,0,0)" stroke="none">0.3</tspan></tspan></tspan></text>
 <text class="TextShape"><tspan class="TextParagraph" font-family="Liberation Sans, sans-serif" font-size="353px" font-weight="400"><tspan class="TextPosition" x="1280" y="3888"><tspan fill="rgb(0,0,0)" stroke="none">0.35</tspan></tspan></tspan></text>
 <text class="TextShape"><tspan class="TextParagraph" font-family="Liberation Sans, sans-serif" font-size="353px" font-weight="400"><tspan class="TextPosition" x="1465" y="3384"><tspan fill="rgb(0,0,0)" stroke="none">0.4</tspan></tspan></tspan></text>
 <text class="TextShape"><tspan class="TextParagraph" font-family="Liberation Sans, sans-serif" font-size="353px" font-weight="400"><tspan class="TextPosition" x="1280" y="2879"><tspan fill="rgb(0,0,0)" stroke="none">0.45</tspan></tspan></tspan></text>
 <text class="TextShape"><tspan class="TextParagraph" font-family="Liberation Sans, sans-serif" font-size="353px" font-weight="400"><tspan class="TextPosition" x="1465" y="2374"><tspan fill="rgb(0,0,0)" stroke="none">0.5</tspan></tspan></tspan></text>
 <text class="TextShape"><tspan class="TextParagraph" font-family="Liberation Sans, sans-serif" font-size="459px" font-weight="400"><tspan class="TextPosition" x="3667" y="850"><tspan fill="rgb(0,0,0)" stroke="none">Failure rate correlation to correlation degree</tspan></tspan></tspan></text>
 <text class="TextShape"><tspan class="TextParagraph" font-family="Liberation Sans, sans-serif" font-size="388px" font-weight="400"><tspan class="TextPosition" x="5228" y="1709"><tspan fill="rgb(0,0,0)" stroke="none">Nubr of error sites kept constant</tspan></tspan></tspan></text>
 <text class="TextShape"><tspan class="TextParagraph" font-family="Liberation Sans, sans-serif" font-size="318px" font-weight="400"><tspan class="TextPosition" x="4582" y="8437"><tspan fill="rgb(0,0,0)" stroke="none">Correlation degree (Correlation length/Anyon number)</tspan></tspan></tspan></text>
 <text class="TextShape" transform="translate(811,5809) rotate(-90) translate(-811,-5809)"><tspan class="TextParagraph" font-family="Liberation Sans, sans-serif" font-size="318px" font-weight="400"><tspan class="TextPosition" x="811" y="5809"><tspan fill="rgb(0,0,0)" stroke="none">Failure rate</tspan></tspan></tspan></text>
</svg>